<svg width="151" height="41" viewBox="0 0 151 41" fill="none" xmlns="http://www.w3.org/2000/svg">
<path fill-rule="evenodd" clip-rule="evenodd" d="M132.838 31.9259C134.145 31.8886 135.266 31.5032 135.973 30.5385C136.957 29.1931 137.801 27.7423 138.635 26.2972C138.81 25.9954 138.682 25.5216 138.694 25.127C138.299 25.2522 137.805 25.2689 137.524 25.5198C135.52 27.3125 134.255 29.6422 132.838 31.9259ZM146.217 26.287C146.092 26.4578 145.966 26.6277 145.842 26.7995C144.405 28.7835 142.975 30.7726 141.526 32.7485C141.162 33.2448 140.801 33.6849 140.814 34.3816C140.821 34.7691 140.555 35.2651 140.252 35.5324C139.685 36.0311 139.001 36.3977 138.367 36.8212C138.213 36.9241 137.919 37.0832 137.936 37.1359C138.153 37.7883 138.323 38.4871 138.696 39.049C139.01 39.5223 139.677 39.5591 140.154 39.2706C140.804 38.8783 141.466 38.4294 141.951 37.8606C143.388 36.1753 144.262 34.1706 145.001 32.1088C145.671 30.2398 146.216 28.3418 146.217 26.287ZM39.951 38.6602C39.9699 39.3478 40.3187 39.6609 40.8907 39.3065C41.6659 38.8261 42.4523 38.2592 43.0094 37.5543C45.4806 34.4268 47.6235 31.0862 49.2269 27.4296C49.4549 26.9098 49.5992 26.3479 49.7216 25.792C49.7664 25.5882 49.7061 25.2576 49.5648 25.1465C49.4264 25.0377 49.0613 25.0472 48.904 25.1571C48.2912 25.5859 47.6491 26.0093 47.1472 26.5525C44.243 29.6964 41.8944 33.2008 40.347 37.2012C40.1662 37.6689 40.0808 38.1731 39.951 38.6602ZM69.4807 38.3992C69.4335 39.3187 69.765 39.6154 70.3559 39.2774C71.0519 38.8799 71.7519 38.3863 72.2543 37.7756C74.9052 34.5528 77.0972 31.0381 78.7764 27.2193C78.9607 26.7997 79.0898 26.3455 79.1684 25.8945C79.2127 25.6402 79.1815 25.1947 79.042 25.128C78.8215 25.0224 78.4164 25.07 78.2047 25.2164C77.6258 25.6177 77.049 26.0512 76.5746 26.5658C73.7482 29.6319 71.4716 33.0561 69.9066 36.9231C69.6855 37.4694 69.5765 38.0604 69.4807 38.3992ZM79.6102 8.26418C79.4022 8.6178 79.2761 8.84357 79.1401 9.06326C73.9591 17.44 68.766 25.8092 63.6095 34.2008C62.9319 35.3034 62.4386 36.5181 61.869 37.6853C61.7831 37.8616 61.6911 38.0641 61.6991 38.2507C61.713 38.5863 61.6884 39.0725 61.8855 39.2141C62.1231 39.3851 62.6626 39.4002 62.917 39.2406C63.5826 38.8232 64.2929 38.3698 64.7553 37.7592C66.2753 35.7534 67.7303 33.6963 69.1407 31.6127C71.0153 28.8433 73.2135 26.4283 76.2775 24.9363C76.9625 24.6026 77.7313 24.4003 78.4841 24.2518C79.567 24.0382 79.9713 24.4133 79.9876 25.4972C79.9897 25.6494 79.9881 25.8016 79.9881 26.1017C80.3116 25.5874 80.5942 25.1811 80.8302 24.7497C81.0094 24.4226 81.2262 24.2765 81.618 24.2894C82.4961 24.3191 83.3758 24.299 84.3553 24.299C84.1809 24.602 84.0702 24.8095 83.9457 25.0086C82.4118 27.4619 80.8228 29.883 79.3609 32.3774C78.4494 33.9326 77.7057 35.5872 76.938 37.2211C76.7284 37.6671 76.6516 38.1946 76.6086 38.6927C76.5529 39.3401 76.8833 39.5963 77.4692 39.2904C78.1454 38.937 78.8334 38.513 79.3462 37.963C80.5206 36.7028 81.6774 35.4093 82.686 34.0181C84.8777 30.9949 86.9798 27.9069 89.0982 24.8315C89.3662 24.4422 89.6425 24.2701 90.1238 24.295C90.9209 24.3363 91.7214 24.3064 92.6859 24.3064C91.4153 26.2716 90.2059 28.1416 88.9969 30.0119C89.0273 30.0357 89.0579 30.0598 89.0886 30.0839C89.4825 29.6363 89.8478 29.1593 90.2758 28.7464C91.5467 27.5202 92.8078 26.2793 94.147 25.1298C94.6105 24.7325 95.2694 24.4866 95.8798 24.3482C97.0611 24.0798 97.8646 24.7582 97.947 25.9633C98.0233 27.0758 97.779 28.131 97.1958 29.0656C96.3555 30.4123 95.4625 31.7286 94.5441 33.024C93.675 34.2495 92.6966 35.4003 91.8625 36.647C91.4969 37.1933 91.2659 37.8804 91.1622 38.5334C91.0446 39.275 91.5526 39.6437 92.2403 39.3335C92.8761 39.0466 93.5382 38.6837 94.0022 38.184C95.1577 36.9397 96.3529 35.692 97.2707 34.2788C99.7243 30.501 102.041 26.6356 104.411 22.8043C104.479 22.6939 104.537 22.5769 104.601 22.4578H98.2619C98.819 21.7387 99.6142 21.5979 100.375 21.5428C101.791 21.4401 103.215 21.4184 104.635 21.4192C105.125 21.4195 105.385 21.2556 105.631 20.8499C106.969 18.64 108.361 16.462 109.679 14.2405C110.022 13.6619 110.404 13.4554 111.057 13.4996C111.865 13.5544 112.679 13.5129 113.643 13.5129C111.984 16.1965 110.411 18.7398 108.739 21.4449C112.596 21.1672 116.442 22.1132 119.929 19.9709C119.976 20.0264 120.023 20.0823 120.07 20.1381C119.833 20.4102 119.632 20.731 119.35 20.946C118.275 21.7641 117.009 22.1418 115.688 22.2013C113.404 22.3046 111.114 22.3175 108.827 22.3295C108.343 22.3321 108.077 22.4827 107.827 22.8898C105.495 26.6928 103.106 30.4616 100.814 34.2873C100.118 35.4493 99.6256 36.7401 99.1347 38.0082C99.0011 38.3531 99.071 39.0434 99.3 39.1924C99.5958 39.3846 100.215 39.3221 100.57 39.1355C101.186 38.8113 101.802 38.3873 102.25 37.8637C103.396 36.5231 104.555 35.1732 105.519 33.7034C107.431 30.7856 109.222 27.7891 111.043 24.8127C111.269 24.4429 111.511 24.2976 111.945 24.3133C112.853 24.3458 113.762 24.323 114.812 24.323C114.638 24.6298 114.522 24.8508 114.391 25.0623C112.494 28.1218 110.566 31.1625 108.712 34.2473C108.011 35.4149 107.435 36.6639 106.899 37.9166C106.732 38.3068 106.882 38.8306 106.887 39.293C107.366 39.2303 107.931 39.3078 108.31 39.0805C110.247 37.9201 111.691 36.2319 112.983 34.4294C115.263 31.2506 117.497 28.0397 119.726 24.8259C119.999 24.4316 120.274 24.272 120.751 24.296C121.544 24.3355 122.339 24.3069 123.275 24.3069C121.991 26.3156 120.776 28.2184 119.561 30.1215C119.588 30.144 119.616 30.1662 119.644 30.1887C119.978 29.802 120.287 29.3886 120.654 29.0333C122.016 27.712 123.371 26.3807 124.788 25.1179C125.199 24.7524 125.783 24.5247 126.327 24.3728C127.638 24.007 128.552 24.7317 128.602 26.0895C128.641 27.1327 128.413 28.1289 127.866 29C126.975 30.4184 126.021 31.7993 125.051 33.1666C124.207 34.3561 123.266 35.4784 122.449 36.684C122.101 37.1962 121.879 37.828 121.743 38.4368C121.579 39.1768 122.118 39.6429 122.809 39.3359C123.505 39.0267 124.199 38.6144 124.747 38.0945C126.508 36.4254 127.966 34.5226 129.054 32.3384C130.532 29.3666 132.704 26.9876 135.503 25.1766C136.378 24.6102 137.342 24.3058 138.383 24.2492C139.54 24.1865 140.244 24.696 140.491 25.828C140.821 27.3391 140.295 28.6173 139.261 29.6945C137.788 31.2284 135.954 32.1659 133.868 32.5036C132.743 32.686 131.987 33.1471 131.572 34.187C131.132 35.2878 130.559 36.3529 130.263 37.4897C129.896 38.8973 130.598 39.5564 132.046 39.2901C133.967 38.937 135.48 37.8039 136.945 36.611C137.059 36.5183 137.06 36.2965 137.133 36.1438C137.481 35.4154 137.73 34.606 138.224 33.9927C138.571 33.5613 139.232 33.2548 139.798 33.1611C140.24 33.088 140.519 32.9681 140.763 32.6397C143.435 29.0384 146.209 25.5062 148.145 21.424C148.4 20.8872 148.847 20.4097 149.298 20.0095C149.51 19.8216 150.036 19.7379 150.254 19.8721C150.454 19.9957 150.531 20.4878 150.489 20.7943C150.357 21.7612 149.768 22.5327 149.047 23.1084C147.746 24.1473 147.326 25.3601 147.624 26.9993C147.903 28.5307 148.026 30.1093 148.031 31.6675C148.043 35.3458 145.18 39.0532 141.728 39.9772C141.365 40.0743 140.992 40.1511 140.619 40.19C138.611 40.3986 137.653 39.6728 137.076 37.4916C136.464 37.8899 135.895 38.3489 135.254 38.657C134.123 39.1993 132.987 39.8089 131.782 40.1035C129.814 40.5844 128.22 39.2935 128.054 37.2711C128.01 36.7306 128.047 36.1838 128.047 35.4898C127.464 36.2047 127.029 36.841 126.49 37.3733C125.692 38.162 124.83 38.8883 123.972 39.6149C123.76 39.7946 123.47 39.896 123.202 39.9955C121.401 40.6633 120.027 39.7647 119.914 37.86C119.841 36.6401 120.053 35.471 120.695 34.4297C121.354 33.3609 122.077 32.3287 122.815 31.3107C123.787 29.9687 124.818 28.6686 125.784 27.3227C126.046 26.9574 126.23 26.5064 126.334 26.0678C126.472 25.4858 126.111 25.1952 125.569 25.4596C125.078 25.6994 124.566 25.9919 124.209 26.3897C122.363 28.4428 120.473 30.4663 118.775 32.6367C117.02 34.8799 115.459 37.274 113.835 39.6167C113.594 39.964 113.354 40.1223 112.919 40.1045C112.038 40.0691 111.154 40.0939 110.132 40.0939C111.073 38.6617 111.947 37.3309 112.822 36.0001C112.804 35.9874 112.786 35.9744 112.768 35.9614C112.014 36.7494 111.288 37.5654 110.499 38.3176C109.649 39.1294 108.732 39.8713 107.535 40.1387C106.317 40.4108 105.405 39.8904 105.256 38.6676C105.129 37.6197 105.23 36.5443 105.23 35.6422C104.451 36.4977 103.577 37.5209 102.632 38.4746C101.866 39.2477 100.987 39.8952 99.8798 40.1339C98.4638 40.4385 97.5161 39.8666 97.3459 38.4585C97.2273 37.4746 97.323 36.4649 97.323 35.6613C96.6001 36.4688 95.7531 37.4855 94.8251 38.4238C94.3187 38.9359 93.7206 39.397 93.0862 39.7401C91.2622 40.7268 89.4177 40.2403 89.2691 37.6287C89.2025 36.454 89.4833 35.3339 90.1017 34.3416C90.7777 33.2569 91.531 32.218 92.283 31.1826C93.231 29.878 94.2305 28.6099 95.167 27.297C95.4286 26.9304 95.6043 26.4773 95.7155 26.0379C95.8435 25.5348 95.5049 25.241 95.023 25.4334C94.619 25.5943 94.227 25.8344 93.8937 26.1147C91.6553 27.9947 89.8395 30.2546 88.1374 32.6018C86.4641 34.9096 84.8438 37.2557 83.2236 39.6011C82.9657 39.9746 82.6924 40.1178 82.2441 40.1016C81.3574 40.0693 80.4689 40.0921 79.4129 40.0921C80.2078 38.915 80.9369 37.8354 81.6662 36.756C81.6337 36.7261 81.6014 36.6962 81.5689 36.6663C81.4076 36.8418 81.2558 37.0276 81.0828 37.1909C80.2156 38.0082 79.4108 38.9111 78.4564 39.6127C76.8865 40.7668 75.4516 40.217 74.9948 38.3444C74.8044 37.5636 74.7766 36.7436 74.6767 35.9569C74.3916 36.3296 74.09 36.8063 73.7068 37.2065C72.8847 38.0643 72.1047 38.9966 71.1535 39.69C69.782 40.6895 68.4985 40.3022 67.9223 38.7115C67.566 37.7271 67.5487 36.6216 67.3881 35.6253C67.3791 35.6375 67.2719 35.8024 67.1481 35.9538C66.3095 36.9789 65.5471 38.0837 64.5964 38.9936C64.0223 39.5431 63.1908 39.9184 62.4082 40.1405C61.345 40.442 60.4034 39.8457 60.2127 38.761C60.033 37.7372 60.0772 36.6745 60.0287 35.7449C59.4508 36.4342 58.8055 37.301 58.0559 38.0667C57.4282 38.7083 56.7402 39.3361 55.97 39.7872C54.1786 40.8369 52.6466 39.9611 52.5834 37.9039C52.562 37.2039 52.6511 36.5009 52.6959 35.6888C52.529 35.8937 52.4146 36.0361 52.2983 36.1769C51.5938 37.0284 50.925 37.9127 50.1706 38.7181C49.7394 39.1779 49.2077 39.5786 48.6527 39.8835C47.405 40.569 46.2677 40.1418 45.7383 38.8224C45.5517 38.3571 45.4367 37.8547 45.3559 37.3587C45.2802 36.8934 45.293 36.4135 45.2687 35.9768C44.4973 36.8889 43.7431 37.8685 42.8903 38.7546C42.4103 39.2536 41.8109 39.6837 41.1887 39.9934C40.1338 40.519 39.2253 40.2027 38.6408 39.1906C37.7429 37.6353 37.9128 35.9932 38.3954 34.3789C39.0957 32.0375 40.5783 30.1585 42.2245 28.4076C43.5658 26.981 45.0626 25.7264 46.8783 24.9284C47.5583 24.6295 48.2949 24.4178 49.0274 24.286C50.1234 24.0888 50.4981 24.4469 50.5122 25.543C50.5141 25.6878 50.5125 25.8325 50.5125 26.1634C50.8738 25.5769 51.1298 25.1234 51.4271 24.6981C51.5394 24.5382 51.7436 24.3424 51.9116 24.3365C52.905 24.3024 53.8996 24.3199 55.002 24.3199C54.8383 24.6084 54.7306 24.8148 54.6079 25.0123C53.0794 27.4685 51.4962 29.8933 50.0383 32.3903C49.129 33.9469 48.3823 35.5999 47.6186 37.2356C47.401 37.7009 47.3285 38.2523 47.2829 38.7724C47.2375 39.2933 47.5906 39.5815 48.0351 39.3332C48.7181 38.9521 49.4309 38.5154 49.9237 37.9304C50.9317 36.7333 51.8885 35.4752 52.7143 34.1489C57.9442 25.7505 63.1375 17.3296 68.3231 8.90419C68.6295 8.40658 68.9516 8.19907 69.5399 8.23612C70.3777 8.2888 71.2217 8.24962 72.2044 8.24962C72.0273 8.5638 71.9129 8.78455 71.7823 8.9955C66.5999 17.3709 61.4015 25.7367 56.2484 34.1301C55.5146 35.3254 54.9543 36.6348 54.414 37.9323C54.2554 38.3137 54.4434 38.8367 54.4724 39.2949C54.9522 39.2199 55.4919 39.2565 55.8959 39.0418C56.4103 38.7684 56.8847 38.3473 57.2527 37.8912C58.2228 36.6893 59.2244 35.4948 60.0402 34.1907C65.3103 25.765 70.5377 17.3129 75.7617 8.85892C76.0425 8.40446 76.3425 8.2266 76.8718 8.25254C77.7342 8.29488 78.6001 8.26418 79.6102 8.26418Z" fill="white"/>
<path fill-rule="evenodd" clip-rule="evenodd" d="M35.3186 19.2074C35.3229 19.1267 35.3272 19.0462 35.3316 18.9655C34.7398 18.3637 33.9891 18.2361 33.1922 18.3994C32.9622 18.4468 32.7822 18.7268 32.5792 18.9001C32.796 19.0855 33.0141 19.429 33.2295 19.4274C33.9265 19.4224 34.6221 19.2905 35.3186 19.2074ZM46.2317 1.02656C45.0337 1.627 43.8354 2.22743 42.5734 2.85979C42.7969 3.13389 42.92 3.28558 43.0439 3.43701C46.188 7.28023 45.9358 12.2913 42.4373 15.8396C41.0887 17.2075 39.4992 18.2129 37.727 18.9637C37.4654 19.0747 37.2106 19.2014 36.8888 19.3502C38.1638 20.7703 38.7914 22.4225 38.8095 24.2088C38.8238 25.6207 38.6991 27.078 38.3403 28.4406C37.0945 33.1723 34.3457 36.8496 29.8931 39.1888C28.1728 40.0929 26.3242 40.5058 24.3573 40.0686C22.8953 39.7436 21.8628 38.5525 21.7283 37.0936C21.5399 35.0512 22.3101 33.329 23.6333 31.8398C25.2158 30.0586 27.1697 28.797 29.5468 28.2412C29.9399 28.1493 30.3572 28.1575 30.7632 28.1193C30.7907 28.2116 30.818 28.3034 30.8455 28.3957C30.5902 28.4978 30.3432 28.6308 30.0786 28.6968C28.6228 29.0606 27.283 29.6507 26.1047 30.5735C24.1886 32.0738 23.0743 34.0144 22.763 36.3927C22.729 36.6517 22.7231 36.9216 22.7544 37.1807C22.9542 38.8292 24.1303 39.603 25.7203 38.9873C26.5974 38.6475 27.4836 38.1449 28.1504 37.5028C32.148 33.6514 34.7533 29.0384 35.703 23.6054C35.9186 22.3721 35.8498 21.0916 35.9076 19.9261C34.8162 20.011 33.9086 20.1421 33.0024 20.1337C32.2163 20.1266 31.691 19.6097 31.6462 18.9993C31.6038 18.4231 32.1113 17.9082 32.8836 17.7261C34.1216 17.4344 35.1903 17.7813 36.1214 18.5519C40.237 16.521 43.8815 6.91326 41.7039 3.72457C41.5003 3.88971 41.296 4.04431 41.1051 4.21341C38.7085 6.33499 36.6756 8.7676 34.7986 11.3263C32.0058 15.1336 29.512 19.1217 27.2382 23.2477C24.7204 27.8175 21.7583 32.0828 17.7771 35.5809C15.3187 37.7416 12.5666 39.426 9.24434 39.9789C7.14442 40.3288 5.02561 40.4198 3.02179 39.5043C1.39104 38.7588 0.464849 37.4975 0.501021 35.7068C0.538004 33.858 1.51575 32.5714 3.20886 31.7878C3.3298 31.7319 3.46288 31.6723 3.59138 31.6699C3.70773 31.6678 3.82569 31.7417 3.94312 31.7818C3.9002 31.8944 3.87995 32.024 3.80788 32.1144C3.74363 32.1949 3.62269 32.2329 3.52605 32.2883C1.9501 33.1924 1.22853 34.9225 1.71173 36.6399C2.08507 37.9676 3.35274 38.8121 5.04126 38.9949C7.96884 39.3118 10.512 38.4855 12.5223 36.4325C14.2114 34.7074 15.8432 32.8961 17.2558 30.9529C19.4411 27.9473 21.4657 24.8258 23.4722 21.7007C26.944 16.2931 30.8644 11.2493 35.7896 7.02011C37.4563 5.58866 39.2614 4.31102 41.0987 2.88934C40.6924 2.62605 40.2945 2.3203 39.8547 2.09104C37.5372 0.882257 35.0211 0.478624 32.4641 0.790978C23.8104 1.84807 16.5677 5.57336 10.8921 12.0803C9.35529 13.8423 8.10139 15.8164 7.29856 18.0055C6.90957 19.0655 6.6434 20.2041 6.54919 21.3253C6.28545 24.4591 8.96414 26.2528 11.9306 25.7217C14.0524 25.3419 15.8319 24.295 17.4291 22.9367C18.1567 22.3178 18.797 21.6023 19.505 20.9605C19.6522 20.8272 19.924 20.8254 20.1383 20.7631C20.1262 20.9594 20.1937 21.2203 20.09 21.3425C17.7612 24.084 15.0679 26.3314 11.2479 26.5939C6.95789 26.8886 4.07053 23.7308 4.67225 19.5591C5.146 16.2736 6.77622 13.5078 8.8899 11.0042C12.4089 6.8365 17.0007 4.18571 22.1125 2.3232C25.8196 0.972217 29.6389 0.0831701 33.6103 0.00402643C36.6208 -0.0558589 39.4655 0.543522 41.8772 2.38915C43.0331 1.86179 44.1582 1.32836 45.3036 0.841366C45.5633 0.730829 45.8945 0.781217 46.1928 0.757474C46.2058 0.84717 46.2188 0.936866 46.2317 1.02656Z" fill="white"/>
<path fill-rule="evenodd" clip-rule="evenodd" d="M143.455 20.6872C142.109 20.4826 141.69 20.1816 141.649 19.4454C141.603 18.6325 142.44 17.7182 143.471 17.4793C144.155 17.3208 144.836 17.3015 145.383 17.7681C145.936 18.2386 146.043 18.8138 145.813 19.4429C145.204 21.1157 143.847 22.1755 142.002 22.8258C141.822 22.8892 141.602 22.8694 141.354 22.8201C142.099 22.1439 143.093 21.6741 143.455 20.6872Z" fill="white"/>
<path fill-rule="evenodd" clip-rule="evenodd" d="M115.744 16.7825C115.749 15.6619 116.823 14.6114 117.94 14.6347C118.784 14.6522 119.393 15.2614 119.403 16.0972C119.415 17.1853 118.316 18.2944 117.226 18.2928C116.373 18.2918 115.74 17.6472 115.744 16.7825Z" fill="white"/>
</svg>
